<svg xmlns="http://www.w3.org/2000/svg" viewBox="0 0 512 512"><rect width="60.34" height="125.856" x="44.497" y="374.405" rx="30.17" ry="30.17" style="fill:#216600" transform="rotate(-45 74.667 437.333)"/><path d="M94.52 417.48a105.595 105.595 0 0 0 149.334 0l192.721-192.722A184.68 184.68 0 0 0 490.667 94.17a72.837 72.837 0 0 0-21.334-51.503 72.836 72.836 0 0 0-51.503-21.334 184.68 184.68 0 0 0-130.588 54.092L94.521 268.146a105.595 105.595 0 0 0 0 149.333z" style="fill:#f4ac03"/><path d="M452.418 68.418a15.086 15.086 0 0 0 0 21.333l12.497 12.498a15.084 15.084 0 0 1 0 21.332v.001a15.086 15.086 0 0 1-21.333 0l-12.497-12.497a15.085 15.085 0 1 0-21.334 21.333l12.498 12.497a15.084 15.084 0 0 1 0 21.332v.002a15.086 15.086 0 0 1-21.334 0l-12.497-12.498a15.085 15.085 0 0 0-21.333 21.334l12.497 12.497a15.084 15.084 0 0 1 0 21.332v.001a15.086 15.086 0 0 1-21.333 0l-12.498-12.497a15.085 15.085 0 0 0-21.333 21.333l12.497 12.498a15.084 15.084 0 0 1 0 21.332v.001a15.086 15.086 0 0 1-21.333 0l-6.249-6.249-32 32 53.334 53.334 105.909-105.91a184.68 184.68 0 0 0 54.09-130.588 72.555 72.555 0 0 0-15.984-44.979c-11.351 9.606-20.375 17.339-22.264 19.228z" style="fill:#f48200"/><rect width="30.17" height="47.843" x="176.915" y="168.079" rx="15.085" ry="15.085" style="fill:#ffd432" transform="rotate(-45 192 192)"/><rect width="30.17" height="47.843" x="347.582" y="82.745" rx="15.085" ry="15.085" style="fill:#f4920b" transform="rotate(-45 362.667 106.667)"/><rect width="30.17" height="47.843" x="304.915" y="125.412" rx="15.085" ry="15.085" style="fill:#f4920b" transform="rotate(-45 320 149.333)"/><rect width="30.17" height="47.843" x="262.248" y="168.079" rx="15.085" ry="15.085" style="fill:#f4920b" transform="rotate(-45 277.333 192)"/><rect width="30.17" height="47.843" x="219.582" y="210.745" rx="15.085" ry="15.085" style="fill:#f4920b" transform="rotate(-45 234.667 234.667)"/><path d="m111.621 400.38 64-64.001a128.758 128.758 0 0 0 37.712-91.046 128.758 128.758 0 0 0-37.712-91.045l-38.784-38.785a30.17 30.17 0 0 0-21.334-8.836 30.17 30.17 0 0 0-30.17 30.17v17.987a89.751 89.751 0 0 1-26.287 63.464 128.758 128.758 0 0 0-37.713 91.045 128.758 128.758 0 0 0 37.713 91.046 37.176 37.176 0 0 0 52.575 0z" style="fill:#378900"/><circle cx="106.667" cy="234.667" r="21.333" style="fill:#4da900"/><ellipse cx="64" cy="298.667" rx="21.333" ry="42.667" style="fill:#4da900"/><path d="M164.333 152.044a21.333 21.333 0 0 0-15.833 35.624 86.475 86.475 0 0 1 21.948 51.535 21.334 21.334 0 0 0 21.258 19.817c.509 0 1.024-.018 1.54-.055a21.333 21.333 0 0 0 19.76-22.797 128.76 128.76 0 0 0-32.827-77.081 21.277 21.277 0 0 0-15.846-7.043z" style="fill:#216600"/><rect width="173.705" height="90.495" x="51.809" y="306.747" rx="45.248" ry="45.248" style="fill:#216600" transform="rotate(-45 138.662 351.995)"/><path d="M202.649 490.26a129.15 129.15 0 0 1-91.105-37.61 66.916 66.916 0 0 1-.114-94.747l85.932-85.931a128.758 128.758 0 0 1 91.045-37.713 128.758 128.758 0 0 1 91.046 37.713l59.193 59.193a30.95 30.95 0 0 1 9.064 21.598A30.95 30.95 0 0 1 416.762 384a130.95 130.95 0 0 0-92.42 38.178l-30.545 30.428a129.15 129.15 0 0 1-91.148 37.653z" style="fill:#4da900"/><path d="M288.406 255.594a106.744 106.744 0 0 0-75.958 31.458l-.677.677-1.785 1.784-2.523 2.523-2.892 2.893-2.892 2.892-2.523 2.523-1.784 1.784-.677.677a21.333 21.333 0 0 0 30.17 30.17l15.745-15.745a64.364 64.364 0 0 1 45.796-18.97 65.193 65.193 0 0 1 18.962 2.785 21.333 21.333 0 0 0 12.398-40.825 107.291 107.291 0 0 0-23.945-4.376l-.249-.017h-.003l-.247-.016h-.003l-.247-.015h-.003l-.245-.015h-.009l-.117-.007h-.003l-.12-.007h-.011l-.118-.007h-.001l-.122-.007h-.008c-.08-.005-.16-.01-.241-.013h-.01l-.12-.007-.121-.006h-.01l-.24-.012h-.01l-.118-.006h-.003l-.12-.005h-.012l-.117-.006h-.002l-.12-.005h-.012l-.114-.006h-.005l-.117-.005h-.018l-.11-.005h-.007l-.115-.004-.02-.001-.11-.004h-.006l-.115-.005h-.02l-.108-.004h-.009l-.113-.004h-.024l-.106-.004h-.008l-.115-.004h-.02l-.11-.004h-.006l-.114-.004h-.024l-.106-.003h-.008l-.113-.004h-.025l-.104-.003h-.01l-.113-.003h-.024l-.106-.003h-.008l-.114-.003h-.023l-.11-.003h-.005l-.111-.002h-.03l-.1-.002h-.012l-.11-.003h-.03l-.1-.002h-.012l-.11-.002h-.029l-.102-.002h-.011l-.11-.001h-.028l-.106-.002h-.008l-.11-.001h-.03l-.1-.001h-.015l-.105-.001h-.034l-.1-.001h-.012l-.11-.001h-.028l-.106-.001h-.259l-.11-.001h-.142z" style="fill:#9fe27c"/><circle cx="170.667" cy="362.667" r="21.333" style="fill:#9fe27c"/><path d="M401.175 342.134a21.592 21.592 0 0 0-2.213.114 174.148 174.148 0 0 0-104.731 49.702l-30.546 30.429a86.484 86.484 0 0 1-122.044.029q-.896-.892-1.683-1.85a21.333 21.333 0 1 0-32.962 27.092q1.328 1.616 2.773 3.166l.217.232v.001l.072.076.002.002.29.306.002.001.072.075.002.002.072.075.001.002.146.15.003.004.072.074.074.076.148.152.005.005.07.07.008.01.067.067.007.008.067.067.013.014.063.063.005.005.07.07.014.014.061.062.014.013.138.138a129.15 129.15 0 0 0 182.253-.044l30.546-30.429.066-.066.028-.027.04-.041.027-.026.041-.041.03-.03.04-.04.026-.025.044-.043.026-.026.052-.051.014-.014.068-.067.017-.017.054-.053.017-.017.05-.049.025-.025.043-.042.028-.027.038-.038.03-.03.043-.04.026-.026.043-.043.026-.025.064-.062.03-.03.04-.038.028-.028.042-.04.026-.026.041-.04.031-.03.039-.038.028-.027.042-.04.028-.028.055-.052.02-.02.057-.055.037-.036.033-.032.034-.032.034-.033.034-.032.037-.036.032-.03.032-.032.038-.036.028-.027.04-.038.022-.02.087-.084.022-.021.039-.037.03-.03.039-.036.03-.029.036-.034.035-.033.033-.032.042-.04.024-.022.051-.049.02-.019.067-.063.03-.028.038-.036.033-.031.038-.036.032-.03.035-.033.036-.033.033-.032.037-.035.029-.027.04-.037.037-.035.052-.049.044-.04.04-.04.027-.024.04-.037.03-.028.039-.036.032-.03.035-.033.034-.031.037-.035.034-.03.033-.032.05-.046.044-.04.044-.041.03-.029.037-.034.037-.033.033-.031.036-.033.033-.03.037-.035.035-.032.034-.032.035-.031.035-.033.066-.06.034-.031.035-.032.04-.037.028-.026.04-.036.03-.027.041-.038.027-.025.041-.037.03-.027.04-.037.038-.034.03-.027.067-.06.034-.031.037-.034.034-.031.035-.032.034-.03.041-.038.028-.024.042-.039.03-.027.04-.036.032-.028.043-.039.049-.044.046-.042.029-.025.04-.037.037-.032.033-.03.037-.033.034-.03.036-.032.04-.036.028-.025.043-.038.031-.028.066-.059.034-.03.036-.032.038-.033.033-.03.04-.035.028-.025.042-.037.03-.026.04-.035.03-.028.04-.034.033-.03.074-.064.029-.026.045-.04.024-.021.045-.04.025-.022.047-.04.023-.02.043-.038.03-.027.042-.036.027-.024.042-.036.027-.023.076-.067.036-.032.034-.029.035-.03.039-.034.033-.028.04-.036.028-.024.042-.036.035-.03.034-.03.041-.035.03-.027.044-.037.058-.05.04-.034.032-.027.04-.035.032-.027.038-.033.038-.033.031-.026.04-.034.034-.03.038-.032.04-.034.03-.025.067-.058.04-.034.033-.028.04-.034.03-.025.04-.035.033-.027.04-.035.028-.023.043-.037.029-.024.044-.038.01-.008.173-.146.025-.02.046-.04.024-.02.045-.037.027-.023.047-.04.022-.018.046-.038.028-.024.167-.14.013-.01.046-.038.03-.025.04-.034.03-.025.042-.034.03-.026.044-.036.025-.02.044-.037.042-.035.03-.025.069-.056.04-.034.032-.026.036-.03.039-.032.034-.028.04-.033.032-.026.038-.031.04-.032.034-.03.035-.027.054-.045.023-.018.07-.058.017-.013.053-.044.033-.027.042-.034.031-.026.04-.032.035-.029.04-.033.034-.026.037-.03.037-.03.059-.048.038-.03.045-.037.036-.03.038-.03.034-.027.039-.032.039-.031.033-.026.04-.033.03-.023.046-.038.015-.012.165-.132.032-.026.04-.032.032-.025.039-.031.04-.032.032-.026.04-.031.035-.029.036-.028.04-.032.023-.018.083-.066.036-.028.038-.03.035-.028.043-.034.029-.022.043-.035.03-.023.045-.036.027-.021.045-.035.024-.02.188-.146v-.001l.049-.038.028-.022.044-.034.027-.022.045-.034.032-.026.04-.031.033-.025.042-.033.032-.025.16-.125.023-.017.046-.035.028-.022.05-.038.021-.017.05-.038.023-.018.052-.04.014-.01.059-.046.002-.002.192-.147.017-.013.049-.038.026-.02.049-.037.022-.016.05-.04.026-.019.047-.035.025-.02.05-.037.004-.003.13-.1.006-.004.048-.036.028-.022.044-.032.028-.022.05-.037.023-.018.048-.037.026-.019.05-.037.018-.014.189-.142.006-.004.057-.043.016-.012.05-.038.028-.02.046-.035.026-.02.049-.036.024-.018.051-.038.01-.007.184-.137.021-.016.049-.036.027-.02.044-.032.032-.024.044-.033.03-.022.043-.032.03-.022.245-.18.019-.014.053-.04.02-.013.052-.038.024-.018.05-.037.021-.015.053-.038.023-.018.249-.18.02-.014.05-.037.027-.02.044-.032.03-.022.05-.035.02-.015.052-.037.025-.018.249-.18.02-.013.05-.037.025-.017.049-.036.027-.02.05-.034.018-.013.256-.182.019-.014.047-.033.03-.022.047-.033.029-.02.045-.033.029-.02.05-.035.018-.013.056-.04.208-.146.008-.005.057-.04.022-.016.051-.036.023-.016.053-.037.022-.015.054-.038.01-.008.189-.13.02-.014.054-.038.02-.014.05-.035.03-.02.047-.033.029-.02.045-.031.03-.02c.08-.057.165-.114.245-.17l.025-.017.052-.036.022-.015.05-.034.03-.02.046-.032.03-.02.046-.032.032-.022.046-.031.012-.009.112-.076.022-.015.045-.03.033-.023.047-.032.029-.02.045-.03.031-.021.05-.034.022-.015.053-.036.02-.013.126-.085.002-.001.05-.034.025-.017.05-.033.027-.019.054-.036.019-.012.053-.036.029-.02.046-.03.03-.02.047-.032.027-.017.108-.073.014-.01.041-.027.04-.025.035-.024.041-.028.044-.029.03-.02.044-.03.038-.024.042-.028.036-.023.04-.027.03-.02.097-.064.024-.016.05-.033.026-.016.05-.033.029-.02.05-.032.022-.015.055-.036.023-.014.053-.035.02-.013.188-.123.016-.01.054-.035.024-.016.05-.033.027-.017.05-.033.03-.019.044-.028.037-.025.044-.028.021-.014.182-.117.024-.015.052-.034.023-.014.057-.037.017-.011.063-.04.008-.005.065-.042.015-.01.268-.17.017-.011.058-.037.019-.012.053-.034.026-.017.054-.033.022-.014.052-.034.03-.018.183-.116.014-.009.056-.034.024-.016.053-.033.023-.015.054-.034.023-.014.056-.035.015-.01.273-.17.014-.008.053-.033.027-.017.053-.032.024-.016.053-.032.024-.015.057-.036.011-.006.064-.04.011-.007.205-.126.009-.005.058-.036.023-.014.055-.034.02-.013.058-.035.018-.01.353-.216.009-.005.06-.037.02-.011.056-.035.024-.014.053-.032.024-.014.267-.161.017-.01.056-.034.022-.013.053-.032.028-.017.051-.03.026-.016.053-.032.025-.015.055-.033h.002l.211-.127.014-.008.06-.035.019-.012.057-.033.02-.013.06-.035.016-.01.062-.036.01-.006.282-.165.013-.008.063-.037.014-.008.062-.036.017-.01.061-.036.013-.008.286-.166.007-.004.064-.038.013-.007.065-.038.012-.007.063-.036.016-.01.063-.035.013-.008.285-.164.007-.004.061-.035.02-.011.06-.034.017-.01.061-.035.017-.01.063-.036.008-.004.29-.165.007-.004.063-.035.018-.01.059-.034.021-.012.057-.032.022-.012.06-.034.004-.003.292-.163.01-.006.065-.036.014-.008.065-.036.012-.007.064-.036.017-.01.358-.197.014-.008.062-.034.017-.01.064-.035.01-.006.067-.037.012-.006.288-.158.01-.005.062-.034.018-.01.06-.033.02-.01.062-.034.012-.007.067-.036.004-.003.297-.16.007-.004.067-.036.013-.007.064-.034.016-.009.064-.035.013-.006.065-.035.013-.007.208-.111.012-.007.055-.029.03-.016.049-.026.03-.017.055-.028.023-.013.06-.031.01-.006.366-.193.016-.008.062-.033.019-.01.06-.031.02-.01.062-.033.007-.004.296-.154.008-.004.065-.034.017-.01.062-.031.017-.009.063-.033.018-.009.063-.032.005-.003.303-.156h.001l.07-.036.013-.007.068-.035.008-.004.072-.037h.001l.46-.234.007-.004.073-.036.002-.002q.5-.252 1.003-.5l.005-.003.075-.037.002-.001.076-.037.003-.002c.206-.102.412-.202.62-.303l.004-.002c.36-.175.726-.35 1.088-.522l.005-.003.154-.073.387-.182.008-.004.07-.033.01-.005.545-.253h.001l.077-.036h.002l.463-.213.013-.006.065-.03.015-.007.07-.032.007-.003.546-.247.005-.002.076-.034.002-.001.468-.21.009-.003.07-.031.011-.005.071-.032.008-.003.467-.205.006-.003.076-.034h.002l.078-.034.474-.206.006-.002.077-.033q.277-.12.556-.238l.003-.002c.37-.157.743-.314 1.115-.468h.002l.076-.032.007-.003.07-.03.015-.005.472-.194.16-.065h.002q.882-.36 1.768-.705h.003c.187-.074.373-.146.56-.218l.006-.002.077-.03.004-.001.564-.215h.001l.08-.03.001-.001a130.922 130.922 0 0 1 32.853-7.753 21.334 21.334 0 0 0-2.187-42.553z" style="fill:#378900"/><rect width="30.17" height="47.843" x="304.915" y="40.079" rx="15.085" ry="15.085" style="fill:#ffd432" transform="rotate(-45 320 64)"/><path d="M278.35 84.316a14.86 14.86 0 0 0 3.401 5.435l12.498 12.498a15.086 15.086 0 0 0 21.333 0v-.002a15.084 15.084 0 0 0 0-21.332l-12.497-12.497a14.951 14.951 0 0 0-4.677-3.107c-3.82 3.242-7.597 6.545-11.166 10.114z" style="fill:#f4920b"/><rect width="30.17" height="47.843" x="262.248" y="82.745" rx="15.085" ry="15.085" style="fill:#ffd432" transform="rotate(-45 277.333 106.667)"/><path d="m239.085 132.418 12.497 12.497a15.086 15.086 0 0 0 21.333 0 15.084 15.084 0 0 0 0-21.333l-12.497-12.497a14.871 14.871 0 0 0-5.435-3.401l-19.3 19.3a14.86 14.86 0 0 0 3.402 5.434zm-42.667 42.667 12.497 12.497a15.086 15.086 0 0 0 21.334 0v-.001a15.084 15.084 0 0 0 0-21.332L217.75 153.75a14.871 14.871 0 0 0-5.435-3.4l-19.3 19.299a14.86 14.86 0 0 0 3.402 5.435z" style="fill:#f4920b"/><rect width="30.17" height="47.843" x="219.582" y="125.412" rx="15.085" ry="15.085" style="fill:#ffd432" transform="rotate(-45 234.667 149.333)"/><rect width="30.17" height="47.843" x="326.248" y="104.079" rx="15.085" ry="15.085" style="fill:#ffd432" transform="rotate(-45 341.333 128)"/><rect width="30.17" height="47.843" x="368.915" y="61.412" rx="15.085" ry="15.085" style="fill:#ffd432" transform="rotate(-45 384 85.333)"/><rect width="30.17" height="47.843" x="283.582" y="146.745" rx="15.085" ry="15.085" style="fill:#ffd432" transform="rotate(-45 298.667 170.667)"/><rect width="30.17" height="47.843" x="240.915" y="189.412" rx="15.085" ry="15.085" style="fill:#ffd432" transform="rotate(-45 256 213.333)"/><rect width="30.17" height="47.843" x="411.582" y="189.412" rx="15.085" ry="15.085" style="fill:#f4ac03" transform="rotate(-45 426.667 213.333)"/><rect width="30.17" height="47.843" x="454.248" y="146.745" rx="15.085" ry="15.085" style="fill:#f4ac03" transform="rotate(-45 469.333 170.667)"/><rect width="30.17" height="47.843" x="368.915" y="232.079" rx="15.085" ry="15.085" style="fill:#f4ac03" transform="rotate(-45 384 256)"/></svg>